<svg width="640" height="640" viewBox="0 0 640 640" fill="none" xmlns="http://www.w3.org/2000/svg">
  <defs>
    <filter id="matrix-glow" x="-50%" y="-50%" width="200%" height="200%">
      <feGaussianBlur in="SourceGraphic" stdDeviation="10" result="blur" />
      <feMerge>
        <feMergeNode in="blur" />
        <feMergeNode in="blur" />
        <feMergeNode in="SourceGraphic" />
      </feMerge>
    </filter>
  </defs>

  <g filter="url(#matrix-glow)">
    <path d="M471.1 297.4C483.6 309.9 483.6 330.2 471.1 342.7L279.1 534.7C266.6 547.2 246.3 547.2 233.8 534.7C221.3 522.2 221.3 501.9 233.8 489.4L403.2 320L233.9 150.6C221.4 138.1 221.4 117.8 233.9 105.3C246.4 92.8 266.7 92.8 279.2 105.3L471.2 297.3z" fill="#00FF00" transform="translate(-100, 0)"/>
  </g>

  <g filter="url(#matrix-glow)" stroke="#00FF00" fill="none" stroke-linecap="round" transform="translate(-30, 40) translate(380, 185) scale(2.5) translate(-380, -185) rotate(-15, 380, 185)">
    <path d="M365 155 A 60 60 0 0 1 395 215" stroke-width="10" opacity="0.3"/>
    <path d="M385 125 A 100 100 0 0 1 425 235" stroke-width="12" opacity="0.6" transform="translate(-13, 3)"/>
    <path d="M405 95 A 140 140 0 0 1 455 255" stroke-width="14" opacity="0.9" transform="translate(-21, 6)"/>
  </g>
</svg>
